<?xml version="1.0" encoding="UTF-8" standalone="no"?>
<!DOCTYPE svg PUBLIC "-//W3C//DTD SVG 1.1//EN" "http://www.w3.org/Graphics/SVG/1.1/DTD/svg11.dtd">
<!-- Created with Vectornator (http://vectornator.io/) -->
<svg height="100%" stroke-miterlimit="10" style="fill-rule:nonzero;clip-rule:evenodd;stroke-linecap:round;stroke-linejoin:round;" version="1.1" viewBox="0 0 204.94 204.74" width="100%" xml:space="preserve" xmlns="http://www.w3.org/2000/svg" xmlns:vectornator="http://vectornator.io" xmlns:xlink="http://www.w3.org/1999/xlink">
<defs>
<path d="M177.406 36.25L177.406 64.25L196.75 75.8438C196.491 68.9712 196.292 62.3475 195.906 54.8438C195.778 52.3538 195.792 49.7617 195.75 47.25L177.406 36.25Z" id="Fill"/>
<path d="M196.062 25.0312L177.406 36.25L195.75 47.25C195.647 41.1648 195.702 34.5254 196.062 25.0312Z" id="Fill_2"/>
<path d="M196.969 80.4688L177.406 92.2188L177.406 120.188L197.5 108.156C197.455 99.4329 197.302 90.2228 196.969 80.4688Z" id="Fill_3"/>
<path d="M154.094 78.2087L154.094 106.212L177.393 120.185L177.393 92.2101L154.094 78.2087Z" id="Fill_4"/>
<path d="M177.406 64.25L154.094 78.2188L177.406 92.2188L196.969 80.4688C196.918 78.9825 196.807 77.3578 196.75 75.8438L177.406 64.25Z" id="Fill_5"/>
<path d="M177.393 36.2598L154.094 50.2335L154.094 78.2087L177.393 64.2349L177.393 61.3295L177.393 41.6556L177.393 36.2598Z" id="Fill_6"/>
<path d="M130.768 36.2598L130.768 64.2349L154.094 78.2087L154.094 50.2335L130.768 36.2598Z" id="Fill_7"/>
<path d="M154.094 22.2584L130.768 36.2598L154.094 50.2335L177.393 36.2598L154.094 22.2584Z" id="Fill_8"/>
<path d="M196.562 8.34375C194.053 8.41251 192.523 8.34827 189.438 8.46875C188.473 8.5064 188.041 8.51043 187.5 8.53125C183.387 8.68945 180.654 8.66698 177.406 8.71875L177.406 36.25L196.062 25.0312C196.076 24.672 196.079 24.4926 196.094 24.125C196.118 23.5064 196.144 23.0085 196.188 21.9062C196.456 15.0638 196.51 11.9092 196.562 8.34375Z" id="Fill_9"/>
<path d="M154.094 7.65625L154.094 22.25L177.406 36.25L177.406 8.71875C168.931 8.85385 161.975 8.72338 155.312 7.875C154.92 7.82506 154.49 7.71295 154.094 7.65625Z" id="Fill_10"/>
<path d="M148.875 6.78125C144.757 6.8593 142.379 6.91726 140.094 7.0625C137.861 7.20437 135.098 7.38029 131.906 7.59375L130.781 8.28125L130.781 36.25L154.094 22.25L154.094 19.3438L154.094 7.65625C152.4 7.41394 150.678 7.14815 148.875 6.78125Z" id="Fill_11"/>
<path d="M129.875 7.75C129.521 7.77412 129.542 7.75485 129.156 7.78125C118.641 8.50089 113.441 8.81199 107.438 9.09375L107.438 22.25L130.781 36.25L130.781 8.28125L129.875 7.75Z" id="Fill_12"/>
<path d="M131.906 7.59375C131.114 7.64675 130.878 7.68168 129.875 7.75L130.781 8.28125L131.906 7.59375Z" id="Fill_13"/>
<path d="M41.8125 5.6875L37.5312 8.28125L37.5312 36.25L60.8125 22.25L60.8125 19.3438L60.8125 7.78125C58.5849 7.51795 57.5828 7.51493 54.5312 7.125C53.7159 7.02081 53.3509 6.9941 52.9062 6.9375C48.3574 6.35838 45.0352 5.99418 41.8125 5.6875Z" id="Fill_14"/>
<path d="M29.2812 5C26.7974 5 15.8399 5.28345 14.1875 5.3125L14.1875 22.25L37.5312 36.25L37.5312 8.28125L32.2812 5.125C31.3108 5.10075 30.2668 5 29.2812 5Z" id="Fill_15"/>
<path d="M32.2812 5.125L37.5312 8.28125L41.8125 5.6875C38.3783 5.36069 35.181 5.19745 32.2812 5.125Z" id="Fill_16"/>
<path d="M84.1425 36.2598L60.816 50.2335L60.816 78.2087L84.1425 64.2349L84.1425 61.3295L84.1425 41.6556L84.1425 36.2598Z" id="Fill_17"/>
<path d="M37.5172 36.2598L37.5172 64.2349L60.816 78.2087L60.816 50.2335L37.5172 36.2598Z" id="Fill_18"/>
<path d="M60.816 22.2584L37.5172 36.2598L60.816 50.2335L84.1425 36.2598L60.816 22.2584Z" id="Fill_19"/>
<path d="M107.438 9.09375C107.023 9.11321 106.359 9.16856 105.938 9.1875C97.979 9.54475 90.9417 9.58847 84.1562 9.46875L84.1562 36.25L107.438 22.25L107.438 19.3438L107.438 9.09375Z" id="Fill_20"/>
<path d="M60.8125 7.78125L60.8125 22.25L84.1562 36.25L84.1562 9.46875C80.963 9.41241 77.7163 9.39317 74.6562 9.21875C70.6513 8.99047 65.7217 8.36152 60.8125 7.78125Z" id="Fill_21"/>
<path d="M130.768 36.2598L107.441 50.2335L107.441 78.2087L130.768 64.2349L130.768 61.3295L130.768 41.6556L130.768 36.2598Z" id="Fill_22"/>
<path d="M84.1425 36.2598L84.1425 64.2349L107.441 78.2087L107.441 50.2335L84.1425 36.2598Z" id="Fill_23"/>
<path d="M107.441 22.2584L84.1425 36.2598L107.441 50.2335L130.768 36.2598L107.441 22.2584Z" id="Fill_24"/>
<path d="M107.441 78.2087L84.1425 92.2101L84.1425 120.185L107.441 106.212L107.441 103.306L107.441 83.6322L107.441 78.2087Z" id="Fill_25"/>
<path d="M60.816 78.2087L60.816 106.212L84.1425 120.185L84.1425 92.2101L60.816 78.2087Z" id="Fill_26"/>
<path d="M84.1425 64.2349L60.816 78.2087L84.1425 92.2101L107.441 78.2087L84.1425 64.2349Z" id="Fill_27"/>
<path d="M154.094 78.2087L130.768 92.2101L130.768 120.185L154.094 106.212L154.094 103.306L154.094 83.6322L154.094 78.2087Z" id="Fill_28"/>
<path d="M107.441 78.2087L107.441 106.212L130.768 120.185L130.768 92.2101L107.441 78.2087Z" id="Fill_29"/>
<path d="M130.768 64.2349L107.441 78.2087L130.768 92.2101L154.094 78.2087L130.768 64.2349Z" id="Fill_30"/>
<path d="M37.5172 36.2598L14.1907 50.2335L14.1907 78.2087L37.5172 64.2349L37.5172 61.3295L37.5172 41.6556L37.5172 36.2598Z" id="Fill_31"/>
<path d="M8.0625 46.5625C8.00932 55.2772 7.83153 64.5162 7.53125 74.2188L14.1875 78.2188L14.1875 50.2188L8.0625 46.5625Z" id="Fill_32"/>
<path d="M14.1875 22.25L7.90625 26C8.03659 32.64 8.10564 39.4935 8.0625 46.5625L14.1875 50.2188L37.5312 36.25L14.1875 22.25Z" id="Fill_33"/>
<path d="M60.816 78.2087L37.5172 92.2101L37.5172 120.185L60.816 106.212L60.816 103.306L60.816 83.6322L60.816 78.2087Z" id="Fill_34"/>
<path d="M14.1907 78.2087L14.1907 106.212L37.5172 120.185L37.5172 92.2101L14.1907 78.2087Z" id="Fill_35"/>
<path d="M37.5172 64.2349L14.1907 78.2087L37.5172 92.2101L60.816 78.2087L37.5172 64.2349Z" id="Fill_36"/>
<path d="M177.406 120.188L177.406 148.156L195.625 159.094C196.366 150.393 196.867 141.36 197.156 132.062L177.406 120.188Z" id="Fill_37"/>
<path d="M197.5 108.156L177.406 120.188L197.156 132.062C197.394 124.442 197.543 116.454 197.5 108.156Z" id="Fill_38"/>
<path d="M195.094 165.531L177.406 176.125L177.406 198.812C179.424 199.124 181.109 199.388 182.5 199.594C183.287 199.71 183.773 199.735 184.531 199.844L193.438 194.5C193.474 192.696 193.436 189.75 193.5 187.906C193.724 181.477 194.128 175.605 194.75 169.906C194.906 168.475 194.951 166.969 195.094 165.531Z" id="Fill_39"/>
<path d="M154.094 162.156L154.094 190.125L165.906 197.219C169.058 197.655 171.012 197.839 175.781 198.562C176.668 198.697 176.763 198.713 177.406 198.812L177.406 176.125L154.094 162.156Z" id="Fill_40"/>
<path d="M177.406 148.156L154.094 162.156L177.406 176.125L195.094 165.531C195.304 163.415 195.443 161.229 195.625 159.094L177.406 148.156Z" id="Fill_41"/>
<path d="M154.094 162.156L130.781 176.125L130.781 194.156C136.891 194.371 142.035 194.641 146.062 194.938L154.094 190.125L154.094 187.219L154.094 167.562L154.094 162.156Z" id="Fill_42"/>
<path d="M107.438 162.156L107.438 190.125L112.75 193.312C116.277 193.497 118.844 193.74 124.125 193.906C124.626 193.922 125.001 193.941 125.906 193.969C127.99 194.034 129.013 194.094 130.781 194.156L130.781 176.125L107.438 162.156Z" id="Fill_43"/>
<path d="M130.768 148.16L107.441 162.162L130.768 176.136L154.094 162.162L130.768 148.16Z" id="Fill_44"/>
<path d="M107.438 162.156L84.1562 176.125L84.1562 192.812C86.1438 192.691 88.8344 192.453 90.5312 192.406C94.8156 192.289 98.4017 192.408 102.469 192.781C102.607 192.794 102.83 192.8 102.969 192.812L107.438 190.125L107.438 187.219L107.438 167.562L107.438 162.156Z" id="Fill_45"/>
<path d="M60.8125 162.156L60.8125 190.125L67.2188 193.969C68.1127 193.904 68.6691 193.923 69.6562 193.844C70.9741 193.739 72.0196 193.677 74.4375 193.469C78.5585 193.115 81.1255 192.998 84.1562 192.812L84.1562 176.125L60.8125 162.156Z" id="Fill_46"/>
<path d="M84.1425 148.16L60.816 162.162L84.1425 176.136L107.441 162.162L84.1425 148.16Z" id="Fill_47"/>
<path d="M60.8125 162.156L37.5312 176.125L37.5312 194.5C43.012 194.503 48.8823 194.492 53.5938 194.469L60.8125 190.125L60.8125 187.219L60.8125 167.562L60.8125 162.156Z" id="Fill_48"/>
<path d="M14.1875 162.156L14.1875 190.125L21.4688 194.5C22.443 194.501 25.2131 194.499 25.5312 194.5C30.5456 194.51 33.4367 194.498 37.5312 194.5L37.5312 176.125L14.1875 162.156Z" id="Fill_49"/>
<path d="M37.5172 148.16L14.1907 162.162L37.5172 176.136L60.816 162.162L37.5172 148.16Z" id="Fill_50"/>
<path d="M130.768 120.185L107.441 134.187L107.441 162.162L130.768 148.16L130.768 145.283L130.768 125.581L130.768 120.185Z" id="Fill_51"/>
<path d="M84.1425 120.185L84.1425 148.16L107.441 162.162L107.441 134.187L84.1425 120.185Z" id="Fill_52"/>
<path d="M107.441 106.212L84.1425 120.185L107.441 134.187L130.768 120.185L107.441 106.212Z" id="Fill_53"/>
<path d="M177.393 120.185L154.094 134.187L154.094 162.162L177.393 148.16L177.393 145.283L177.393 125.581L177.393 120.185Z" id="Fill_54"/>
<path d="M130.768 120.185L130.768 148.16L154.094 162.162L154.094 134.187L130.768 120.185Z" id="Fill_55"/>
<path d="M154.094 106.212L130.768 120.185L154.094 134.187L177.393 120.185L154.094 106.212Z" id="Fill_56"/>
<path d="M37.5172 120.185L14.1907 134.187L14.1907 162.162L37.5172 148.16L37.5172 145.283L37.5172 125.581L37.5172 120.185Z" id="Fill_57"/>
<path d="M8.5625 130.812C8.55438 138.478 7.8483 148.048 7 157.844L14.1875 162.156L14.1875 134.188L8.5625 130.812Z" id="Fill_58"/>
<path d="M14.1875 106.219L8.09375 109.875C8.18748 112.964 8.28836 117.489 8.40625 120.375C8.55258 123.958 8.56615 127.368 8.5625 130.812L14.1875 134.188L37.5312 120.188L14.1875 106.219Z" id="Fill_59"/>
<path d="M84.1425 120.185L60.816 134.187L60.816 162.162L84.1425 148.16L84.1425 145.283L84.1425 125.581L84.1425 120.185Z" id="Fill_60"/>
<path d="M37.5172 120.185L37.5172 148.16L60.816 162.162L60.816 134.187L37.5172 120.185Z" id="Fill_61"/>
<path d="M60.816 106.212L37.5172 120.185L60.816 134.187L84.1425 120.185L60.816 106.212Z" id="Fill_62"/>
</defs>
<g id="Background" vectornator:layerName="Background"/>
<g id="Figure" vectornator:layerName="Figure">
<g opacity="1">
<g opacity="1">
<g opacity="1">
<g opacity="1">
<mask height="39.5938" id="StrokeMask" maskUnits="userSpaceOnUse" width="19.3438" x="177.406" y="36.25">
<rect fill="#000000" height="39.5938" stroke="none" width="19.3438" x="177.406" y="36.25"/>
<use fill="#ffffff" fill-rule="evenodd" stroke="none" xlink:href="#Fill"/>
</mask>
<use fill="none" mask="url(#StrokeMask)" stroke="#ffffff" stroke-linecap="butt" stroke-linejoin="round" stroke-width="4" xlink:href="#Fill"/>
</g>
<g opacity="1">
<mask height="22.2188" id="StrokeMask_2" maskUnits="userSpaceOnUse" width="18.6562" x="177.406" y="25.0312">
<rect fill="#000000" height="22.2188" stroke="none" width="18.6562" x="177.406" y="25.0312"/>
<use fill="#ffffff" fill-rule="evenodd" stroke="none" xlink:href="#Fill_2"/>
</mask>
<use fill="none" mask="url(#StrokeMask_2)" stroke="#ffffff" stroke-linecap="butt" stroke-linejoin="round" stroke-width="4" xlink:href="#Fill_2"/>
</g>
</g>
<g opacity="1">
<g opacity="1">
<mask height="39.7188" id="StrokeMask_3" maskUnits="userSpaceOnUse" width="20.0938" x="177.406" y="80.4688">
<rect fill="#000000" height="39.7188" stroke="none" width="20.0938" x="177.406" y="80.4688"/>
<use fill="#ffffff" fill-rule="evenodd" stroke="none" xlink:href="#Fill_3"/>
</mask>
<use fill="none" mask="url(#StrokeMask_3)" stroke="#ffffff" stroke-linecap="butt" stroke-linejoin="round" stroke-width="4" xlink:href="#Fill_3"/>
</g>
<g opacity="1">
<mask height="41.9766" id="StrokeMask_4" maskUnits="userSpaceOnUse" width="23.2988" x="154.094" y="78.2087">
<rect fill="#000000" height="41.9766" stroke="none" width="23.2988" x="154.094" y="78.2087"/>
<use fill="#ffffff" fill-rule="evenodd" stroke="none" xlink:href="#Fill_4"/>
</mask>
<use fill="none" mask="url(#StrokeMask_4)" stroke="#ffffff" stroke-linecap="butt" stroke-linejoin="round" stroke-width="4" xlink:href="#Fill_4"/>
</g>
<g opacity="1">
<mask height="27.9688" id="StrokeMask_5" maskUnits="userSpaceOnUse" width="42.875" x="154.094" y="64.25">
<rect fill="#000000" height="27.9688" stroke="none" width="42.875" x="154.094" y="64.25"/>
<use fill="#ffffff" fill-rule="evenodd" stroke="none" xlink:href="#Fill_5"/>
</mask>
<use fill="none" mask="url(#StrokeMask_5)" stroke="#ffffff" stroke-linecap="butt" stroke-linejoin="round" stroke-width="4" xlink:href="#Fill_5"/>
</g>
</g>
<g opacity="1">
<g opacity="1">
<mask height="41.9489" id="StrokeMask_6" maskUnits="userSpaceOnUse" width="23.2988" x="154.094" y="36.2598">
<rect fill="#000000" height="41.9489" stroke="none" width="23.2988" x="154.094" y="36.2598"/>
<use fill="#ffffff" fill-rule="evenodd" stroke="none" xlink:href="#Fill_6"/>
</mask>
<use fill="none" mask="url(#StrokeMask_6)" stroke="#ffffff" stroke-linecap="butt" stroke-linejoin="round" stroke-width="4" xlink:href="#Fill_6"/>
</g>
<g opacity="1">
<mask height="41.9489" id="StrokeMask_7" maskUnits="userSpaceOnUse" width="23.3265" x="130.768" y="36.2598">
<rect fill="#000000" height="41.9489" stroke="none" width="23.3265" x="130.768" y="36.2598"/>
<use fill="#ffffff" fill-rule="evenodd" stroke="none" xlink:href="#Fill_7"/>
</mask>
<use fill="none" mask="url(#StrokeMask_7)" stroke="#ffffff" stroke-linecap="butt" stroke-linejoin="round" stroke-width="4" xlink:href="#Fill_7"/>
</g>
<g opacity="1">
<mask height="27.9752" id="StrokeMask_8" maskUnits="userSpaceOnUse" width="46.6253" x="130.768" y="22.2584">
<rect fill="#000000" height="27.9752" stroke="none" width="46.6253" x="130.768" y="22.2584"/>
<use fill="#ffffff" fill-rule="evenodd" stroke="none" xlink:href="#Fill_8"/>
</mask>
<use fill="none" mask="url(#StrokeMask_8)" stroke="#ffffff" stroke-linecap="butt" stroke-linejoin="round" stroke-width="4" xlink:href="#Fill_8"/>
</g>
</g>
<g opacity="1">
<g opacity="1">
<mask height="27.9062" id="StrokeMask_9" maskUnits="userSpaceOnUse" width="19.1562" x="177.406" y="8.34375">
<rect fill="#000000" height="27.9062" stroke="none" width="19.1562" x="177.406" y="8.34375"/>
<use fill="#ffffff" fill-rule="evenodd" stroke="none" xlink:href="#Fill_9"/>
</mask>
<use fill="none" mask="url(#StrokeMask_9)" stroke="#ffffff" stroke-linecap="butt" stroke-linejoin="round" stroke-width="4" xlink:href="#Fill_9"/>
</g>
<g opacity="1">
<mask height="28.5938" id="StrokeMask_10" maskUnits="userSpaceOnUse" width="23.3125" x="154.094" y="7.65625">
<rect fill="#000000" height="28.5938" stroke="none" width="23.3125" x="154.094" y="7.65625"/>
<use fill="#ffffff" fill-rule="evenodd" stroke="none" xlink:href="#Fill_10"/>
</mask>
<use fill="none" mask="url(#StrokeMask_10)" stroke="#ffffff" stroke-linecap="butt" stroke-linejoin="round" stroke-width="4" xlink:href="#Fill_10"/>
</g>
</g>
<g opacity="1">
<g opacity="1">
<mask height="29.4688" id="StrokeMask_11" maskUnits="userSpaceOnUse" width="23.3125" x="130.781" y="6.78125">
<rect fill="#000000" height="29.4688" stroke="none" width="23.3125" x="130.781" y="6.78125"/>
<use fill="#ffffff" fill-rule="evenodd" stroke="none" xlink:href="#Fill_11"/>
</mask>
<use fill="none" mask="url(#StrokeMask_11)" stroke="#ffffff" stroke-linecap="butt" stroke-linejoin="round" stroke-width="4" xlink:href="#Fill_11"/>
</g>
<g opacity="1">
<mask height="28.5" id="StrokeMask_12" maskUnits="userSpaceOnUse" width="23.3438" x="107.438" y="7.75">
<rect fill="#000000" height="28.5" stroke="none" width="23.3438" x="107.438" y="7.75"/>
<use fill="#ffffff" fill-rule="evenodd" stroke="none" xlink:href="#Fill_12"/>
</mask>
<use fill="none" mask="url(#StrokeMask_12)" stroke="#ffffff" stroke-linecap="butt" stroke-linejoin="round" stroke-width="4" xlink:href="#Fill_12"/>
</g>
<g opacity="1">
<mask height="0.6875" id="StrokeMask_13" maskUnits="userSpaceOnUse" width="2.03125" x="129.875" y="7.59375">
<rect fill="#000000" height="0.6875" stroke="none" width="2.03125" x="129.875" y="7.59375"/>
<use fill="#ffffff" fill-rule="evenodd" stroke="none" xlink:href="#Fill_13"/>
</mask>
<use fill="none" mask="url(#StrokeMask_13)" stroke="#ffffff" stroke-linecap="butt" stroke-linejoin="round" stroke-width="4" xlink:href="#Fill_13"/>
</g>
</g>
<g opacity="1">
<g opacity="1">
<mask height="30.5625" id="StrokeMask_14" maskUnits="userSpaceOnUse" width="23.2812" x="37.5312" y="5.6875">
<rect fill="#000000" height="30.5625" stroke="none" width="23.2812" x="37.5312" y="5.6875"/>
<use fill="#ffffff" fill-rule="evenodd" stroke="none" xlink:href="#Fill_14"/>
</mask>
<use fill="none" mask="url(#StrokeMask_14)" stroke="#ffffff" stroke-linecap="butt" stroke-linejoin="round" stroke-width="4" xlink:href="#Fill_14"/>
</g>
<g opacity="1">
<mask height="31.25" id="StrokeMask_15" maskUnits="userSpaceOnUse" width="23.3438" x="14.1875" y="5">
<rect fill="#000000" height="31.25" stroke="none" width="23.3438" x="14.1875" y="5"/>
<use fill="#ffffff" fill-rule="evenodd" stroke="none" xlink:href="#Fill_15"/>
</mask>
<use fill="none" mask="url(#StrokeMask_15)" stroke="#ffffff" stroke-linecap="butt" stroke-linejoin="round" stroke-width="4" xlink:href="#Fill_15"/>
</g>
<g opacity="1">
<mask height="3.15625" id="StrokeMask_16" maskUnits="userSpaceOnUse" width="9.53125" x="32.2812" y="5.125">
<rect fill="#000000" height="3.15625" stroke="none" width="9.53125" x="32.2812" y="5.125"/>
<use fill="#ffffff" fill-rule="evenodd" stroke="none" xlink:href="#Fill_16"/>
</mask>
<use fill="none" mask="url(#StrokeMask_16)" stroke="#ffffff" stroke-linecap="butt" stroke-linejoin="round" stroke-width="4" xlink:href="#Fill_16"/>
</g>
</g>
<g opacity="1">
<g opacity="1">
<mask height="41.9489" id="StrokeMask_17" maskUnits="userSpaceOnUse" width="23.3265" x="60.816" y="36.2598">
<rect fill="#000000" height="41.9489" stroke="none" width="23.3265" x="60.816" y="36.2598"/>
<use fill="#ffffff" fill-rule="evenodd" stroke="none" xlink:href="#Fill_17"/>
</mask>
<use fill="none" mask="url(#StrokeMask_17)" stroke="#ffffff" stroke-linecap="butt" stroke-linejoin="round" stroke-width="4" xlink:href="#Fill_17"/>
</g>
<g opacity="1">
<mask height="41.9489" id="StrokeMask_18" maskUnits="userSpaceOnUse" width="23.2988" x="37.5172" y="36.2598">
<rect fill="#000000" height="41.9489" stroke="none" width="23.2988" x="37.5172" y="36.2598"/>
<use fill="#ffffff" fill-rule="evenodd" stroke="none" xlink:href="#Fill_18"/>
</mask>
<use fill="none" mask="url(#StrokeMask_18)" stroke="#ffffff" stroke-linecap="butt" stroke-linejoin="round" stroke-width="4" xlink:href="#Fill_18"/>
</g>
<g opacity="1">
<mask height="27.9752" id="StrokeMask_19" maskUnits="userSpaceOnUse" width="46.6253" x="37.5172" y="22.2584">
<rect fill="#000000" height="27.9752" stroke="none" width="46.6253" x="37.5172" y="22.2584"/>
<use fill="#ffffff" fill-rule="evenodd" stroke="none" xlink:href="#Fill_19"/>
</mask>
<use fill="none" mask="url(#StrokeMask_19)" stroke="#ffffff" stroke-linecap="butt" stroke-linejoin="round" stroke-width="4" xlink:href="#Fill_19"/>
</g>
</g>
<g opacity="1">
<g opacity="1">
<mask height="27.1562" id="StrokeMask_20" maskUnits="userSpaceOnUse" width="23.2812" x="84.1562" y="9.09375">
<rect fill="#000000" height="27.1562" stroke="none" width="23.2812" x="84.1562" y="9.09375"/>
<use fill="#ffffff" fill-rule="evenodd" stroke="none" xlink:href="#Fill_20"/>
</mask>
<use fill="none" mask="url(#StrokeMask_20)" stroke="#ffffff" stroke-linecap="butt" stroke-linejoin="round" stroke-width="4" xlink:href="#Fill_20"/>
</g>
<g opacity="1">
<mask height="28.4688" id="StrokeMask_21" maskUnits="userSpaceOnUse" width="23.3438" x="60.8125" y="7.78125">
<rect fill="#000000" height="28.4688" stroke="none" width="23.3438" x="60.8125" y="7.78125"/>
<use fill="#ffffff" fill-rule="evenodd" stroke="none" xlink:href="#Fill_21"/>
</mask>
<use fill="none" mask="url(#StrokeMask_21)" stroke="#ffffff" stroke-linecap="butt" stroke-linejoin="round" stroke-width="4" xlink:href="#Fill_21"/>
</g>
</g>
<g opacity="1">
<g opacity="1">
<mask height="41.9489" id="StrokeMask_22" maskUnits="userSpaceOnUse" width="23.3265" x="107.441" y="36.2598">
<rect fill="#000000" height="41.9489" stroke="none" width="23.3265" x="107.441" y="36.2598"/>
<use fill="#ffffff" fill-rule="evenodd" stroke="none" xlink:href="#Fill_22"/>
</mask>
<use fill="none" mask="url(#StrokeMask_22)" stroke="#ffffff" stroke-linecap="butt" stroke-linejoin="round" stroke-width="4" xlink:href="#Fill_22"/>
</g>
<g opacity="1">
<mask height="41.9489" id="StrokeMask_23" maskUnits="userSpaceOnUse" width="23.2988" x="84.1425" y="36.2598">
<rect fill="#000000" height="41.9489" stroke="none" width="23.2988" x="84.1425" y="36.2598"/>
<use fill="#ffffff" fill-rule="evenodd" stroke="none" xlink:href="#Fill_23"/>
</mask>
<use fill="none" mask="url(#StrokeMask_23)" stroke="#ffffff" stroke-linecap="butt" stroke-linejoin="round" stroke-width="4" xlink:href="#Fill_23"/>
</g>
<g opacity="1">
<mask height="27.9752" id="StrokeMask_24" maskUnits="userSpaceOnUse" width="46.6253" x="84.1425" y="22.2584">
<rect fill="#000000" height="27.9752" stroke="none" width="46.6253" x="84.1425" y="22.2584"/>
<use fill="#ffffff" fill-rule="evenodd" stroke="none" xlink:href="#Fill_24"/>
</mask>
<use fill="none" mask="url(#StrokeMask_24)" stroke="#ffffff" stroke-linecap="butt" stroke-linejoin="round" stroke-width="4" xlink:href="#Fill_24"/>
</g>
</g>
<g opacity="1">
<g opacity="1">
<mask height="41.9766" id="StrokeMask_25" maskUnits="userSpaceOnUse" width="23.2988" x="84.1425" y="78.2087">
<rect fill="#000000" height="41.9766" stroke="none" width="23.2988" x="84.1425" y="78.2087"/>
<use fill="#ffffff" fill-rule="evenodd" stroke="none" xlink:href="#Fill_25"/>
</mask>
<use fill="none" mask="url(#StrokeMask_25)" stroke="#ffffff" stroke-linecap="butt" stroke-linejoin="round" stroke-width="4" xlink:href="#Fill_25"/>
</g>
<g opacity="1">
<mask height="41.9766" id="StrokeMask_26" maskUnits="userSpaceOnUse" width="23.3265" x="60.816" y="78.2087">
<rect fill="#000000" height="41.9766" stroke="none" width="23.3265" x="60.816" y="78.2087"/>
<use fill="#ffffff" fill-rule="evenodd" stroke="none" xlink:href="#Fill_26"/>
</mask>
<use fill="none" mask="url(#StrokeMask_26)" stroke="#ffffff" stroke-linecap="butt" stroke-linejoin="round" stroke-width="4" xlink:href="#Fill_26"/>
</g>
<g opacity="1">
<mask height="27.9752" id="StrokeMask_27" maskUnits="userSpaceOnUse" width="46.6253" x="60.816" y="64.2349">
<rect fill="#000000" height="27.9752" stroke="none" width="46.6253" x="60.816" y="64.2349"/>
<use fill="#ffffff" fill-rule="evenodd" stroke="none" xlink:href="#Fill_27"/>
</mask>
<use fill="none" mask="url(#StrokeMask_27)" stroke="#ffffff" stroke-linecap="butt" stroke-linejoin="round" stroke-width="4" xlink:href="#Fill_27"/>
</g>
</g>
<g opacity="1">
<g opacity="1">
<mask height="41.9766" id="StrokeMask_28" maskUnits="userSpaceOnUse" width="23.3265" x="130.768" y="78.2087">
<rect fill="#000000" height="41.9766" stroke="none" width="23.3265" x="130.768" y="78.2087"/>
<use fill="#ffffff" fill-rule="evenodd" stroke="none" xlink:href="#Fill_28"/>
</mask>
<use fill="none" mask="url(#StrokeMask_28)" stroke="#ffffff" stroke-linecap="butt" stroke-linejoin="round" stroke-width="4" xlink:href="#Fill_28"/>
</g>
<g opacity="1">
<mask height="41.9766" id="StrokeMask_29" maskUnits="userSpaceOnUse" width="23.3265" x="107.441" y="78.2087">
<rect fill="#000000" height="41.9766" stroke="none" width="23.3265" x="107.441" y="78.2087"/>
<use fill="#ffffff" fill-rule="evenodd" stroke="none" xlink:href="#Fill_29"/>
</mask>
<use fill="none" mask="url(#StrokeMask_29)" stroke="#ffffff" stroke-linecap="butt" stroke-linejoin="round" stroke-width="4" xlink:href="#Fill_29"/>
</g>
<g opacity="1">
<mask height="27.9752" id="StrokeMask_30" maskUnits="userSpaceOnUse" width="46.6529" x="107.441" y="64.2349">
<rect fill="#000000" height="27.9752" stroke="none" width="46.6529" x="107.441" y="64.2349"/>
<use fill="#ffffff" fill-rule="evenodd" stroke="none" xlink:href="#Fill_30"/>
</mask>
<use fill="none" mask="url(#StrokeMask_30)" stroke="#ffffff" stroke-linecap="butt" stroke-linejoin="round" stroke-width="4" xlink:href="#Fill_30"/>
</g>
</g>
<g opacity="1">
<g opacity="1">
<mask height="41.9489" id="StrokeMask_31" maskUnits="userSpaceOnUse" width="23.3265" x="14.1907" y="36.2598">
<rect fill="#000000" height="41.9489" stroke="none" width="23.3265" x="14.1907" y="36.2598"/>
<use fill="#ffffff" fill-rule="evenodd" stroke="none" xlink:href="#Fill_31"/>
</mask>
<use fill="none" mask="url(#StrokeMask_31)" stroke="#ffffff" stroke-linecap="butt" stroke-linejoin="round" stroke-width="4" xlink:href="#Fill_31"/>
</g>
<g opacity="1">
<mask height="31.6562" id="StrokeMask_32" maskUnits="userSpaceOnUse" width="6.65625" x="7.53125" y="46.5625">
<rect fill="#000000" height="31.6562" stroke="none" width="6.65625" x="7.53125" y="46.5625"/>
<use fill="#ffffff" fill-rule="evenodd" stroke="none" xlink:href="#Fill_32"/>
</mask>
<use fill="none" mask="url(#StrokeMask_32)" stroke="#ffffff" stroke-linecap="butt" stroke-linejoin="round" stroke-width="4" xlink:href="#Fill_32"/>
</g>
<g opacity="1">
<mask height="27.9688" id="StrokeMask_33" maskUnits="userSpaceOnUse" width="29.625" x="7.90625" y="22.25">
<rect fill="#000000" height="27.9688" stroke="none" width="29.625" x="7.90625" y="22.25"/>
<use fill="#ffffff" fill-rule="evenodd" stroke="none" xlink:href="#Fill_33"/>
</mask>
<use fill="none" mask="url(#StrokeMask_33)" stroke="#ffffff" stroke-linecap="butt" stroke-linejoin="round" stroke-width="4" xlink:href="#Fill_33"/>
</g>
</g>
<g opacity="1">
<g opacity="1">
<mask height="41.9766" id="StrokeMask_34" maskUnits="userSpaceOnUse" width="23.2988" x="37.5172" y="78.2087">
<rect fill="#000000" height="41.9766" stroke="none" width="23.2988" x="37.5172" y="78.2087"/>
<use fill="#ffffff" fill-rule="evenodd" stroke="none" xlink:href="#Fill_34"/>
</mask>
<use fill="none" mask="url(#StrokeMask_34)" stroke="#ffffff" stroke-linecap="butt" stroke-linejoin="round" stroke-width="4" xlink:href="#Fill_34"/>
</g>
<g opacity="1">
<mask height="41.9766" id="StrokeMask_35" maskUnits="userSpaceOnUse" width="23.3265" x="14.1907" y="78.2087">
<rect fill="#000000" height="41.9766" stroke="none" width="23.3265" x="14.1907" y="78.2087"/>
<use fill="#ffffff" fill-rule="evenodd" stroke="none" xlink:href="#Fill_35"/>
</mask>
<use fill="none" mask="url(#StrokeMask_35)" stroke="#ffffff" stroke-linecap="butt" stroke-linejoin="round" stroke-width="4" xlink:href="#Fill_35"/>
</g>
<g opacity="1">
<mask height="27.9752" id="StrokeMask_36" maskUnits="userSpaceOnUse" width="46.6253" x="14.1907" y="64.2349">
<rect fill="#000000" height="27.9752" stroke="none" width="46.6253" x="14.1907" y="64.2349"/>
<use fill="#ffffff" fill-rule="evenodd" stroke="none" xlink:href="#Fill_36"/>
</mask>
<use fill="none" mask="url(#StrokeMask_36)" stroke="#ffffff" stroke-linecap="butt" stroke-linejoin="round" stroke-width="4" xlink:href="#Fill_36"/>
</g>
</g>
<g opacity="1">
<g opacity="1">
<mask height="38.9062" id="StrokeMask_37" maskUnits="userSpaceOnUse" width="19.75" x="177.406" y="120.188">
<rect fill="#000000" height="38.9062" stroke="none" width="19.75" x="177.406" y="120.188"/>
<use fill="#ffffff" fill-rule="evenodd" stroke="none" xlink:href="#Fill_37"/>
</mask>
<use fill="none" mask="url(#StrokeMask_37)" stroke="#ffffff" stroke-linecap="butt" stroke-linejoin="round" stroke-width="4" xlink:href="#Fill_37"/>
</g>
<g opacity="1">
<mask height="23.9062" id="StrokeMask_38" maskUnits="userSpaceOnUse" width="20.1012" x="177.406" y="108.156">
<rect fill="#000000" height="23.9062" stroke="none" width="20.1012" x="177.406" y="108.156"/>
<use fill="#ffffff" fill-rule="evenodd" stroke="none" xlink:href="#Fill_38"/>
</mask>
<use fill="none" mask="url(#StrokeMask_38)" stroke="#ffffff" stroke-linecap="butt" stroke-linejoin="round" stroke-width="4" xlink:href="#Fill_38"/>
</g>
</g>
<g opacity="1">
<g opacity="1">
<mask height="34.3125" id="StrokeMask_39" maskUnits="userSpaceOnUse" width="17.6875" x="177.406" y="165.531">
<rect fill="#000000" height="34.3125" stroke="none" width="17.6875" x="177.406" y="165.531"/>
<use fill="#ffffff" fill-rule="evenodd" stroke="none" xlink:href="#Fill_39"/>
</mask>
<use fill="none" mask="url(#StrokeMask_39)" stroke="#ffffff" stroke-linecap="butt" stroke-linejoin="round" stroke-width="4" xlink:href="#Fill_39"/>
</g>
<g opacity="1">
<mask height="36.6562" id="StrokeMask_40" maskUnits="userSpaceOnUse" width="23.3125" x="154.094" y="162.156">
<rect fill="#000000" height="36.6562" stroke="none" width="23.3125" x="154.094" y="162.156"/>
<use fill="#ffffff" fill-rule="evenodd" stroke="none" xlink:href="#Fill_40"/>
</mask>
<use fill="none" mask="url(#StrokeMask_40)" stroke="#ffffff" stroke-linecap="butt" stroke-linejoin="round" stroke-width="4" xlink:href="#Fill_40"/>
</g>
<g opacity="1">
<mask height="27.9688" id="StrokeMask_41" maskUnits="userSpaceOnUse" width="41.5312" x="154.094" y="148.156">
<rect fill="#000000" height="27.9688" stroke="none" width="41.5312" x="154.094" y="148.156"/>
<use fill="#ffffff" fill-rule="evenodd" stroke="none" xlink:href="#Fill_41"/>
</mask>
<use fill="none" mask="url(#StrokeMask_41)" stroke="#ffffff" stroke-linecap="butt" stroke-linejoin="round" stroke-width="4" xlink:href="#Fill_41"/>
</g>
</g>
<g opacity="1">
<g opacity="1">
<mask height="32.7812" id="StrokeMask_42" maskUnits="userSpaceOnUse" width="23.3125" x="130.781" y="162.156">
<rect fill="#000000" height="32.7812" stroke="none" width="23.3125" x="130.781" y="162.156"/>
<use fill="#ffffff" fill-rule="evenodd" stroke="none" xlink:href="#Fill_42"/>
</mask>
<use fill="none" mask="url(#StrokeMask_42)" stroke="#ffffff" stroke-linecap="butt" stroke-linejoin="round" stroke-width="4" xlink:href="#Fill_42"/>
</g>
<g opacity="1">
<mask height="32" id="StrokeMask_43" maskUnits="userSpaceOnUse" width="23.3438" x="107.438" y="162.156">
<rect fill="#000000" height="32" stroke="none" width="23.3438" x="107.438" y="162.156"/>
<use fill="#ffffff" fill-rule="evenodd" stroke="none" xlink:href="#Fill_43"/>
</mask>
<use fill="none" mask="url(#StrokeMask_43)" stroke="#ffffff" stroke-linecap="butt" stroke-linejoin="round" stroke-width="4" xlink:href="#Fill_43"/>
</g>
<g opacity="1">
<mask height="27.9752" id="StrokeMask_44" maskUnits="userSpaceOnUse" width="46.6529" x="107.441" y="148.16">
<rect fill="#000000" height="27.9752" stroke="none" width="46.6529" x="107.441" y="148.16"/>
<use fill="#ffffff" fill-rule="evenodd" stroke="none" xlink:href="#Fill_44"/>
</mask>
<use fill="none" mask="url(#StrokeMask_44)" stroke="#ffffff" stroke-linecap="butt" stroke-linejoin="round" stroke-width="4" xlink:href="#Fill_44"/>
</g>
</g>
<g opacity="1">
<g opacity="1">
<mask height="30.6562" id="StrokeMask_45" maskUnits="userSpaceOnUse" width="23.2812" x="84.1562" y="162.156">
<rect fill="#000000" height="30.6562" stroke="none" width="23.2812" x="84.1562" y="162.156"/>
<use fill="#ffffff" fill-rule="evenodd" stroke="none" xlink:href="#Fill_45"/>
</mask>
<use fill="none" mask="url(#StrokeMask_45)" stroke="#ffffff" stroke-linecap="butt" stroke-linejoin="round" stroke-width="4" xlink:href="#Fill_45"/>
</g>
<g opacity="1">
<mask height="31.8125" id="StrokeMask_46" maskUnits="userSpaceOnUse" width="23.3438" x="60.8125" y="162.156">
<rect fill="#000000" height="31.8125" stroke="none" width="23.3438" x="60.8125" y="162.156"/>
<use fill="#ffffff" fill-rule="evenodd" stroke="none" xlink:href="#Fill_46"/>
</mask>
<use fill="none" mask="url(#StrokeMask_46)" stroke="#ffffff" stroke-linecap="butt" stroke-linejoin="round" stroke-width="4" xlink:href="#Fill_46"/>
</g>
<g opacity="1">
<mask height="27.9752" id="StrokeMask_47" maskUnits="userSpaceOnUse" width="46.6253" x="60.816" y="148.16">
<rect fill="#000000" height="27.9752" stroke="none" width="46.6253" x="60.816" y="148.16"/>
<use fill="#ffffff" fill-rule="evenodd" stroke="none" xlink:href="#Fill_47"/>
</mask>
<use fill="none" mask="url(#StrokeMask_47)" stroke="#ffffff" stroke-linecap="butt" stroke-linejoin="round" stroke-width="4" xlink:href="#Fill_47"/>
</g>
</g>
<g opacity="1">
<g opacity="1">
<mask height="32.3441" id="StrokeMask_48" maskUnits="userSpaceOnUse" width="23.2812" x="37.5312" y="162.156">
<rect fill="#000000" height="32.3441" stroke="none" width="23.2812" x="37.5312" y="162.156"/>
<use fill="#ffffff" fill-rule="evenodd" stroke="none" xlink:href="#Fill_48"/>
</mask>
<use fill="none" mask="url(#StrokeMask_48)" stroke="#ffffff" stroke-linecap="butt" stroke-linejoin="round" stroke-width="4" xlink:href="#Fill_48"/>
</g>
<g opacity="1">
<mask height="32.3477" id="StrokeMask_49" maskUnits="userSpaceOnUse" width="23.3438" x="14.1875" y="162.156">
<rect fill="#000000" height="32.3477" stroke="none" width="23.3438" x="14.1875" y="162.156"/>
<use fill="#ffffff" fill-rule="evenodd" stroke="none" xlink:href="#Fill_49"/>
</mask>
<use fill="none" mask="url(#StrokeMask_49)" stroke="#ffffff" stroke-linecap="butt" stroke-linejoin="round" stroke-width="4" xlink:href="#Fill_49"/>
</g>
<g opacity="1">
<mask height="27.9752" id="StrokeMask_50" maskUnits="userSpaceOnUse" width="46.6253" x="14.1907" y="148.16">
<rect fill="#000000" height="27.9752" stroke="none" width="46.6253" x="14.1907" y="148.16"/>
<use fill="#ffffff" fill-rule="evenodd" stroke="none" xlink:href="#Fill_50"/>
</mask>
<use fill="none" mask="url(#StrokeMask_50)" stroke="#ffffff" stroke-linecap="butt" stroke-linejoin="round" stroke-width="4" xlink:href="#Fill_50"/>
</g>
</g>
<g opacity="1">
<g opacity="1">
<mask height="41.9766" id="StrokeMask_51" maskUnits="userSpaceOnUse" width="23.3265" x="107.441" y="120.185">
<rect fill="#000000" height="41.9766" stroke="none" width="23.3265" x="107.441" y="120.185"/>
<use fill="#ffffff" fill-rule="evenodd" stroke="none" xlink:href="#Fill_51"/>
</mask>
<use fill="none" mask="url(#StrokeMask_51)" stroke="#ffffff" stroke-linecap="butt" stroke-linejoin="round" stroke-width="4" xlink:href="#Fill_51"/>
</g>
<g opacity="1">
<mask height="41.9766" id="StrokeMask_52" maskUnits="userSpaceOnUse" width="23.2988" x="84.1425" y="120.185">
<rect fill="#000000" height="41.9766" stroke="none" width="23.2988" x="84.1425" y="120.185"/>
<use fill="#ffffff" fill-rule="evenodd" stroke="none" xlink:href="#Fill_52"/>
</mask>
<use fill="none" mask="url(#StrokeMask_52)" stroke="#ffffff" stroke-linecap="butt" stroke-linejoin="round" stroke-width="4" xlink:href="#Fill_52"/>
</g>
<g opacity="1">
<mask height="27.9752" id="StrokeMask_53" maskUnits="userSpaceOnUse" width="46.6253" x="84.1425" y="106.212">
<rect fill="#000000" height="27.9752" stroke="none" width="46.6253" x="84.1425" y="106.212"/>
<use fill="#ffffff" fill-rule="evenodd" stroke="none" xlink:href="#Fill_53"/>
</mask>
<use fill="none" mask="url(#StrokeMask_53)" stroke="#ffffff" stroke-linecap="butt" stroke-linejoin="round" stroke-width="4" xlink:href="#Fill_53"/>
</g>
</g>
<g opacity="1">
<g opacity="1">
<mask height="41.9766" id="StrokeMask_54" maskUnits="userSpaceOnUse" width="23.2988" x="154.094" y="120.185">
<rect fill="#000000" height="41.9766" stroke="none" width="23.2988" x="154.094" y="120.185"/>
<use fill="#ffffff" fill-rule="evenodd" stroke="none" xlink:href="#Fill_54"/>
</mask>
<use fill="none" mask="url(#StrokeMask_54)" stroke="#ffffff" stroke-linecap="butt" stroke-linejoin="round" stroke-width="4" xlink:href="#Fill_54"/>
</g>
<g opacity="1">
<mask height="41.9766" id="StrokeMask_55" maskUnits="userSpaceOnUse" width="23.3265" x="130.768" y="120.185">
<rect fill="#000000" height="41.9766" stroke="none" width="23.3265" x="130.768" y="120.185"/>
<use fill="#ffffff" fill-rule="evenodd" stroke="none" xlink:href="#Fill_55"/>
</mask>
<use fill="none" mask="url(#StrokeMask_55)" stroke="#ffffff" stroke-linecap="butt" stroke-linejoin="round" stroke-width="4" xlink:href="#Fill_55"/>
</g>
<g opacity="1">
<mask height="27.9752" id="StrokeMask_56" maskUnits="userSpaceOnUse" width="46.6253" x="130.768" y="106.212">
<rect fill="#000000" height="27.9752" stroke="none" width="46.6253" x="130.768" y="106.212"/>
<use fill="#ffffff" fill-rule="evenodd" stroke="none" xlink:href="#Fill_56"/>
</mask>
<use fill="none" mask="url(#StrokeMask_56)" stroke="#ffffff" stroke-linecap="butt" stroke-linejoin="round" stroke-width="4" xlink:href="#Fill_56"/>
</g>
</g>
<g opacity="1">
<g opacity="1">
<mask height="41.9766" id="StrokeMask_57" maskUnits="userSpaceOnUse" width="23.3265" x="14.1907" y="120.185">
<rect fill="#000000" height="41.9766" stroke="none" width="23.3265" x="14.1907" y="120.185"/>
<use fill="#ffffff" fill-rule="evenodd" stroke="none" xlink:href="#Fill_57"/>
</mask>
<use fill="none" mask="url(#StrokeMask_57)" stroke="#ffffff" stroke-linecap="butt" stroke-linejoin="round" stroke-width="4" xlink:href="#Fill_57"/>
</g>
<g opacity="1">
<mask height="31.3438" id="StrokeMask_58" maskUnits="userSpaceOnUse" width="7.1875" x="7" y="130.812">
<rect fill="#000000" height="31.3438" stroke="none" width="7.1875" x="7" y="130.812"/>
<use fill="#ffffff" fill-rule="evenodd" stroke="none" xlink:href="#Fill_58"/>
</mask>
<use fill="none" mask="url(#StrokeMask_58)" stroke="#ffffff" stroke-linecap="butt" stroke-linejoin="round" stroke-width="4" xlink:href="#Fill_58"/>
</g>
<g opacity="1">
<mask height="27.9688" id="StrokeMask_59" maskUnits="userSpaceOnUse" width="29.4375" x="8.09375" y="106.219">
<rect fill="#000000" height="27.9688" stroke="none" width="29.4375" x="8.09375" y="106.219"/>
<use fill="#ffffff" fill-rule="evenodd" stroke="none" xlink:href="#Fill_59"/>
</mask>
<use fill="none" mask="url(#StrokeMask_59)" stroke="#ffffff" stroke-linecap="butt" stroke-linejoin="round" stroke-width="4" xlink:href="#Fill_59"/>
</g>
</g>
<g opacity="1">
<g opacity="1">
<mask height="41.9766" id="StrokeMask_60" maskUnits="userSpaceOnUse" width="23.3265" x="60.816" y="120.185">
<rect fill="#000000" height="41.9766" stroke="none" width="23.3265" x="60.816" y="120.185"/>
<use fill="#ffffff" fill-rule="evenodd" stroke="none" xlink:href="#Fill_60"/>
</mask>
<use fill="none" mask="url(#StrokeMask_60)" stroke="#ffffff" stroke-linecap="butt" stroke-linejoin="round" stroke-width="4" xlink:href="#Fill_60"/>
</g>
<g opacity="1">
<mask height="41.9766" id="StrokeMask_61" maskUnits="userSpaceOnUse" width="23.2988" x="37.5172" y="120.185">
<rect fill="#000000" height="41.9766" stroke="none" width="23.2988" x="37.5172" y="120.185"/>
<use fill="#ffffff" fill-rule="evenodd" stroke="none" xlink:href="#Fill_61"/>
</mask>
<use fill="none" mask="url(#StrokeMask_61)" stroke="#ffffff" stroke-linecap="butt" stroke-linejoin="round" stroke-width="4" xlink:href="#Fill_61"/>
</g>
<g opacity="1">
<mask height="27.9752" id="StrokeMask_62" maskUnits="userSpaceOnUse" width="46.6253" x="37.5172" y="106.212">
<rect fill="#000000" height="27.9752" stroke="none" width="46.6253" x="37.5172" y="106.212"/>
<use fill="#ffffff" fill-rule="evenodd" stroke="none" xlink:href="#Fill_62"/>
</mask>
<use fill="none" mask="url(#StrokeMask_62)" stroke="#ffffff" stroke-linecap="butt" stroke-linejoin="round" stroke-width="4" xlink:href="#Fill_62"/>
</g>
</g>
</g>
<path d="M196.932 72.0294L196.932 196.738L8.29495 196.738L8 8.1056L196.932 8.1056L196.932 72.0294" fill="none" opacity="1" stroke="#ffffff" stroke-linecap="butt" stroke-linejoin="round" stroke-width="16"/>
</g>
</g>
<g id="Text" vectornator:layerName="Text"/>
</svg>
